<?xml version="1.0" encoding="UTF-8" standalone="no"?>
<!-- Created with Inkscape (http://www.inkscape.org/) -->

<svg
   width="32"
   height="32"
   viewBox="0 0 8.4666668 8.4666672"
   version="1.1"
   id="svg1"
   xml:space="preserve"
   inkscape:version="1.3 (0e150ed, 2023-07-21)"
   sodipodi:docname="favicon-academia-bnb.svg"
   xmlns:inkscape="http://www.inkscape.org/namespaces/inkscape"
   xmlns:sodipodi="http://sodipodi.sourceforge.net/DTD/sodipodi-0.dtd"
   xmlns="http://www.w3.org/2000/svg"
   xmlns:svg="http://www.w3.org/2000/svg"><sodipodi:namedview
     id="namedview1"
     pagecolor="#ffffff"
     bordercolor="#000000"
     borderopacity="0.25"
     inkscape:showpageshadow="2"
     inkscape:pageopacity="0.0"
     inkscape:pagecheckerboard="0"
     inkscape:deskcolor="#d1d1d1"
     inkscape:document-units="mm"
     inkscape:zoom="5.7366301"
     inkscape:cx="48.896302"
     inkscape:cy="41.749249"
     inkscape:window-width="1312"
     inkscape:window-height="760"
     inkscape:window-x="40"
     inkscape:window-y="32"
     inkscape:window-maximized="0"
     inkscape:current-layer="layer1"
     showgrid="false" /><defs
     id="defs1" /><g
     inkscape:label="logo-academia-bnb"
     inkscape:groupmode="layer"
     id="layer1"
     transform="translate(-21.549931,-68.848834)"><path
       style="display:inline;opacity:0.99;fill:#ec625d;fill-opacity:1;stroke:#ff5a60;stroke-width:0.0265912;stroke-linecap:square;stroke-linejoin:bevel;stroke-opacity:0.992157"
       d="m 28.278605,77.077491 h -0.764886 l 0.01108,-5.369745 -3.035682,-1.73507 -1.334071,0.740178 0.01561,5.580564 1.601634,-0.0027 c 0.244894,-0.0151 1.019601,0.04261 1.105017,-0.66301 0.09389,-0.775673 -0.382182,-1.054462 -0.957682,-1.068185 -0.570763,-0.01361 -0.874804,-0.0092 -0.874804,-0.0092 v -0.745869 c 0.282393,-0.0031 0.550752,0.0022 0.846732,-0.0023 0.480989,-0.0077 0.911504,-0.346948 0.845083,-0.978362 -0.08441,-0.802426 -0.643952,-0.768849 -1.693302,-0.770394 l -0.0078,-0.797848 c 0,0 1.876921,-0.263884 2.375873,0.991244 0.485405,1.221047 -0.352607,1.851277 -0.352607,1.851277 l 0.0044,0.07684 c 0,0 0.692755,0.475694 0.598267,1.572657 -0.09004,1.045149 -1.009591,1.318813 -1.619927,1.326384 l -2.663639,0.02174 -0.0041,-6.746538 2.171737,-1.282358 4.65372,2.750863 h -0.930745 z"
       id="path1"
       sodipodi:nodetypes="cccccccssccssccsccsccccccc" /></g></svg>
