<?xml version="1.0" encoding="UTF-8" standalone="no"?>
<!-- Created with Inkscape (http://www.inkscape.org/) -->

<svg
   width="210"
   height="250"
   viewBox="0 0 55.5625 66.145837"
   version="1.1"
   id="svg1"
   xml:space="preserve"
   inkscape:version="1.3 (0e150ed, 2023-07-21)"
   sodipodi:docname="logo-alone-white.svg"
   xmlns:inkscape="http://www.inkscape.org/namespaces/inkscape"
   xmlns:sodipodi="http://sodipodi.sourceforge.net/DTD/sodipodi-0.dtd"
   xmlns="http://www.w3.org/2000/svg"
   xmlns:svg="http://www.w3.org/2000/svg"><sodipodi:namedview
     id="namedview1"
     pagecolor="#ffffff"
     bordercolor="#000000"
     borderopacity="0.25"
     inkscape:showpageshadow="2"
     inkscape:pageopacity="0.0"
     inkscape:pagecheckerboard="0"
     inkscape:deskcolor="#d1d1d1"
     inkscape:document-units="mm"
     inkscape:zoom="0.60847472"
     inkscape:cx="192.28408"
     inkscape:cy="252.27014"
     inkscape:window-width="1312"
     inkscape:window-height="760"
     inkscape:window-x="0"
     inkscape:window-y="25"
     inkscape:window-maximized="0"
     inkscape:current-layer="layer1"
     showgrid="false" /><defs
     id="defs1" /><g
     inkscape:label="logo-academia-bnb"
     inkscape:groupmode="layer"
     id="layer1"
     transform="translate(-21.549931,-68.848834)"><path
       style="display:inline;opacity:0.99;fill:#fafafa;fill-opacity:1;stroke:#fafafa;stroke-width:0.2;stroke-linecap:square;stroke-linejoin:bevel;stroke-opacity:0.992157"
       d="m 68.09995,131.97269 h -5.75293 l 0.0832,-40.387291 -22.832201,-13.049941 -10.0339,5.567091 0.117415,41.972921 12.046328,-0.02 c 1.84191,-0.11351 7.668698,0.32041 8.311138,-4.98668 0.70623,-5.83405 -2.8745,-7.93089 -7.202986,-8.0341 -4.292867,-0.10236 -6.579648,-0.0693 -6.579648,-0.0693 v -5.61002 c 2.123957,-0.0231 4.142352,0.0172 6.368502,-0.0185 3.617652,-0.058 6.855672,-2.60948 6.356092,-7.358521 -0.63489,-6.03526 -4.843332,-5.78272 -12.735771,-5.79434 l -0.05959,-6.00082 c 0,0 14.116831,-1.98476 17.869591,7.45541 3.65085,9.183811 -2.65205,13.923951 -2.65205,13.923951 l 0.033,0.57801 c 0,0 5.2104,3.5778 4.49972,11.82837 -0.67711,7.86085 -7.59341,9.91915 -12.18391,9.97608 l -20.033944,0.16355 -0.03032,-50.742539 16.334212,-9.644963 35.001892,20.690001 h -7.00038 z"
       id="path1"
       sodipodi:nodetypes="cccccccssccssccsccsccccccc" /></g></svg>
