<?xml version="1.0" encoding="UTF-8" standalone="no"?>
<!-- Created with Inkscape (http://www.inkscape.org/) -->

<svg
   width="600"
   height="600"
   viewBox="0 0 158.75 158.75001"
   version="1.1"
   id="svg1"
   xml:space="preserve"
   inkscape:version="1.3 (0e150ed, 2023-07-21)"
   sodipodi:docname="logo-academia-bnb.svg"
   xmlns:inkscape="http://www.inkscape.org/namespaces/inkscape"
   xmlns:sodipodi="http://sodipodi.sourceforge.net/DTD/sodipodi-0.dtd"
   xmlns="http://www.w3.org/2000/svg"
   xmlns:svg="http://www.w3.org/2000/svg"><sodipodi:namedview
     id="namedview1"
     pagecolor="#ffffff"
     bordercolor="#000000"
     borderopacity="0.25"
     inkscape:showpageshadow="2"
     inkscape:pageopacity="0.0"
     inkscape:pagecheckerboard="0"
     inkscape:deskcolor="#d1d1d1"
     inkscape:document-units="mm"
     inkscape:zoom="0.60847472"
     inkscape:cx="240.76596"
     inkscape:cy="252.27014"
     inkscape:window-width="1312"
     inkscape:window-height="760"
     inkscape:window-x="0"
     inkscape:window-y="25"
     inkscape:window-maximized="0"
     inkscape:current-layer="layer1"
     showgrid="false" /><defs
     id="defs1" /><g
     inkscape:label="logo-academia-bnb"
     inkscape:groupmode="layer"
     id="layer1"
     transform="translate(-21.549931,-68.848834)"><path
       style="display:inline;opacity:0.99;fill:#ec625d;fill-opacity:1;stroke:#ff5a60;stroke-width:0.2;stroke-linecap:square;stroke-linejoin:bevel;stroke-opacity:0.992157"
       d="m 123.12754,150.32318 h -5.75293 l 0.0832,-40.38729 -22.832201,-13.049941 -10.0339,5.567091 0.117415,41.97292 12.046328,-0.02 c 1.84191,-0.11351 7.668698,0.32041 8.311138,-4.98668 0.70623,-5.83405 -2.8745,-7.93089 -7.202986,-8.0341 -4.292867,-0.10236 -6.579648,-0.0693 -6.579648,-0.0693 v -5.61002 c 2.123957,-0.0231 4.142352,0.0172 6.368502,-0.0185 3.617652,-0.058 6.855672,-2.60948 6.356092,-7.35852 -0.63489,-6.03526 -4.843332,-5.78272 -12.735771,-5.79434 l -0.05959,-6.00082 c 0,0 14.116831,-1.98476 17.869591,7.45541 3.65085,9.18381 -2.65205,13.92395 -2.65205,13.92395 l 0.033,0.57801 c 0,0 5.2104,3.5778 4.49972,11.82837 -0.67711,7.86085 -7.59341,9.91915 -12.18391,9.97608 l -20.033944,0.16355 -0.03032,-50.742538 16.334212,-9.644963 35.001892,20.690001 H 123.051 Z"
       id="path1"
       sodipodi:nodetypes="cccccccssccssccsccsccccccc" /><text
       xml:space="preserve"
       style="font-style:normal;font-variant:normal;font-weight:normal;font-stretch:normal;font-size:22.2249px;line-height:1;font-family:Montserrat;-inkscape-font-specification:Montserrat;text-align:center;letter-spacing:1.85208px;word-spacing:0px;text-anchor:middle;opacity:0.99;fill:#242424;fill-opacity:1;stroke:#242424;stroke-width:0.200001;stroke-linecap:square;stroke-linejoin:bevel;stroke-opacity:1"
       x="100.92492"
       y="181.37158"
       id="text1"><tspan
         sodipodi:role="line"
         style="letter-spacing:1.85208px;fill:#242424;fill-opacity:1;stroke-width:0.200001"
         x="101.85096"
         y="181.37158"
         id="tspan2">ACADEMIA</tspan></text><text
       xml:space="preserve"
       style="font-style:normal;font-variant:normal;font-weight:normal;font-stretch:normal;font-size:18.6972px;line-height:1;font-family:Montserrat;-inkscape-font-specification:Montserrat;text-align:center;letter-spacing:1.30704px;word-spacing:0px;text-anchor:middle;opacity:0.99;fill:#ec625d;fill-opacity:0.992157;stroke:#ec625d;stroke-width:0.2;stroke-linecap:square;stroke-linejoin:bevel;stroke-opacity:0.992157"
       x="99.514793"
       y="206.36223"
       id="text3"><tspan
         sodipodi:role="line"
         id="tspan3"
         style="font-size:18.6972px;letter-spacing:1.30704px;fill:#ec625d;fill-opacity:0.992157;stroke:#ec625d;stroke-width:0.2;stroke-opacity:0.992157"
         x="100.16831"
         y="206.36223">BNB</tspan></text><path
       style="opacity:0.99;fill:#242424;fill-opacity:1;stroke:#242424;stroke-width:0.810526;stroke-linecap:square;stroke-linejoin:bevel;stroke-dasharray:none;stroke-opacity:1"
       d="m 63.640055,186.52721 79.975765,-0.23639"
       id="path3" /></g></svg>
