<?xml version="1.0" encoding="UTF-8" standalone="no"?>
<svg
   width="128"
   height="128"
   viewBox="0 0 24 24"
   version="1.1"
   id="svg1"
   sodipodi:docname="MaterialSymbolsWarningOutlineRounded.svg"
   inkscape:export-filename="../../../../Desktop/warning-icon.png"
   inkscape:export-xdpi="96"
   inkscape:export-ydpi="96"
   xmlns:inkscape="http://www.inkscape.org/namespaces/inkscape"
   xmlns:sodipodi="http://sodipodi.sourceforge.net/DTD/sodipodi-0.dtd"
   xmlns="http://www.w3.org/2000/svg"
   xmlns:svg="http://www.w3.org/2000/svg">
  <defs
     id="defs1" />
  <sodipodi:namedview
     id="namedview1"
     pagecolor="#ffffff"
     bordercolor="#000000"
     borderopacity="0.25"
     inkscape:showpageshadow="2"
     inkscape:pageopacity="0.0"
     inkscape:pagecheckerboard="0"
     inkscape:deskcolor="#d1d1d1" />
  <path
     fill="#FF5A60"
     d="M2.725 21q-.275 0-.5-.138t-.35-.362q-.125-.225-.138-.488t.138-.512l9.25-16q.15-.25.388-.375T12 3q.25 0 .488.125t.387.375l9.25 16q.15.25.138.513t-.138.487q-.125.225-.35.363t-.5.137H2.725Zm1.725-2h15.1L12 6L4.45 19ZM12 18q.425 0 .713-.288T13 17q0-.425-.288-.713T12 16q-.425 0-.713.288T11 17q0 .425.288.713T12 18Zm0-3q.425 0 .713-.288T13 14v-3q0-.425-.288-.713T12 10q-.425 0-.713.288T11 11v3q0 .425.288.713T12 15Zm0-2.5Z"
     id="path1" />
</svg>
