<?xml version="1.0" encoding="UTF-8" standalone="no"?>
<svg
   width="128"
   height="128"
   viewBox="0 0 24 24"
   version="1.1"
   id="svg2"
   sodipodi:docname="MingcuteCurrencyDollarLine.svg"
   inkscape:export-filename="../../../../Desktop/dollar-icon.png"
   inkscape:export-xdpi="96"
   inkscape:export-ydpi="96"
   xmlns:inkscape="http://www.inkscape.org/namespaces/inkscape"
   xmlns:sodipodi="http://sodipodi.sourceforge.net/DTD/sodipodi-0.dtd"
   xmlns="http://www.w3.org/2000/svg"
   xmlns:svg="http://www.w3.org/2000/svg">
  <defs
     id="defs2" />
  <sodipodi:namedview
     id="namedview2"
     pagecolor="#ffffff"
     bordercolor="#000000"
     borderopacity="0.25"
     inkscape:showpageshadow="2"
     inkscape:pageopacity="0.0"
     inkscape:pagecheckerboard="0"
     inkscape:deskcolor="#d1d1d1" />
  <g
     fill="none"
     id="g2">
    <path
       d="M0 0h24v24H0z"
       id="path1" />
    <path
       fill="#f9f9f9"
       d="M12 2c5.523 0 10 4.477 10 10s-4.477 10-10 10S2 17.523 2 12S6.477 2 12 2Zm0 2a8 8 0 1 0 0 16a8 8 0 0 0 0-16Zm0 2a1 1 0 0 1 .993.883L13 7v1h2a1 1 0 0 1 .117 1.993L15 10h-5a.5.5 0 0 0-.09.992L10 11h4a2.5 2.5 0 0 1 .164 4.995L14 16h-1v1a1 1 0 0 1-1.993.117L11 17v-1H9a1 1 0 0 1-.117-1.993L9 14h5a.5.5 0 0 0 .09-.992L14 13h-4a2.5 2.5 0 0 1-.164-4.995L10 8h1V7a1 1 0 0 1 1-1Z"
       id="path2" />
  </g>
</svg>
